<svg version="1.1" xmlns="http://www.w3.org/2000/svg" xmlns:xlink="http://www.w3.org/1999/xlink" width="61" height="104"><defs/><g><path fill="rgb(255,255,255)" stroke="none" paint-order="stroke fill markers" fill-rule="evenodd" d=" M 59.99842834472656 73.07287812232971 C 59.99842834472656 73.07287812232971 38.334190368652344 51.28372144699097 38.334190368652344 51.28372144699097 C 38.334190368652344 51.28372144699097 58.789703369140625 30.70978057384491 58.789703369140625 30.70978057384491 C 58.789703369140625 30.70978057384491 30.243331909179688 1.999620795249939 30.243331909179688 1.999620795249939 C 30.243331909179688 1.999620795249939 30.243331909179688 43.14632576704025 30.243331909179688 43.14632576704025 C 30.243331909179688 43.14632576704025 4.3247528076171875 17.078417003154755 4.3247528076171875 17.078417003154755 C 4.3247528076171875 17.078417003154755 1.0015029907226562 20.42045658826828 1.0015029907226562 20.42045658826828 C 1.0015029907226562 20.42045658826828 30.243331909179688 49.8304049372673 30.243331909179688 49.8304049372673 C 30.243331909179688 49.8304049372673 30.243331909179688 52.736253440380096 30.243331909179688 52.736253440380096 C 30.243331909179688 52.736253440380096 1.0015029907226562 82.14659404754639 1.0015029907226562 82.14659404754639 C 1.0015029907226562 82.14659404754639 4.324409484863281 85.48902589082718 4.324409484863281 85.48902589082718 C 4.324409484863281 85.48902589082718 30.24310302734375 59.42111712694168 30.24310302734375 59.42111712694168 C 30.24310302734375 59.42111712694168 30.24310302734375 102.99943047761917 30.24310302734375 102.99943047761917 C 30.24310302734375 102.99943047761917 59.99842834472656 73.07287812232971 59.99842834472656 73.07287812232971 Z M 34.943077087402344 13.410803139209747 C 34.943077087402344 13.410803139209747 52.1434326171875 30.70978057384491 52.1434326171875 30.70978057384491 C 52.1434326171875 30.70978057384491 35.01094055175781 47.94089734554291 35.01094055175781 47.94089734554291 C 35.01094055175781 47.94089734554291 34.94273376464844 47.87303668260574 34.94273376464844 47.87303668260574 C 34.94273376464844 47.87303668260574 34.943077087402344 13.410803139209747 34.943077087402344 13.410803139209747 C 34.943077087402344 13.410803139209747 34.943077087402344 13.410803139209747 34.943077087402344 13.410803139209747 Z M 34.943077087402344 54.69440621137619 C 34.943077087402344 54.69440621137619 35.01128387451172 54.62615329027176 35.01128387451172 54.62615329027176 C 35.01128387451172 54.62615329027176 53.35261535644531 73.07327038049698 53.35261535644531 73.07327038049698 C 53.35261535644531 73.07327038049698 34.943077087402344 91.58864039182663 34.943077087402344 91.58864039182663 C 34.943077087402344 91.58864039182663 34.943077087402344 54.69440621137619 34.943077087402344 54.69440621137619 Z"/></g></svg>