<svg version="1.1" xmlns="http://www.w3.org/2000/svg" xmlns:xlink="http://www.w3.org/1999/xlink" width="114" height="84"><defs/><g><path fill="rgb(255,255,255)" stroke="none" paint-order="stroke fill markers" fill-rule="evenodd" d=" M 112.73127746582031 53.479498744010925 C 112.73070526123047 53.485774874687195 112.73047637939453 53.492051005363464 112.72978973388672 53.498719394207 C 112.1611328125 60.09257918596268 110.88786315917969 70.29050701856613 110.8189697265625 70.84202200174332 C 110.81610870361328 70.86438071727753 110.81141662597656 70.88556265830994 110.8076400756836 70.90752911567688 C 110.80352020263672 70.93224138021469 110.80008697509766 70.95773816108704 110.79470825195312 70.98205816745758 C 110.78864288330078 71.00951623916626 110.78097534179688 71.0361897945404 110.77388000488281 71.06325560808182 C 110.76758575439453 71.0860065817833 110.76232147216797 71.10914981365204 110.7552261352539 71.13190078735352 C 110.74412536621094 71.16681176424026 110.73119354248047 71.20015370845795 110.7179183959961 71.23349565267563 C 110.71253967285156 71.24722468852997 110.70819091796875 71.26095372438431 110.70258331298828 71.27507501840591 C 110.68232727050781 71.3225382566452 110.65978240966797 71.36882472038269 110.63529205322266 71.41354215145111 C 110.63426208496094 71.41628795862198 110.6325454711914 71.41864150762558 110.6307144165039 71.42138731479645 C 110.60782623291016 71.463358938694 110.58287811279297 71.50415378808975 110.55644226074219 71.5437718629837 C 110.54923248291016 71.55475509166718 110.5409927368164 71.56456154584885 110.5336685180664 71.57515251636505 C 110.51192474365234 71.60574865341187 110.49029541015625 71.63595253229141 110.46649169921875 71.66537189483643 C 110.45539093017578 71.67910093069077 110.44348907470703 71.69126093387604 110.43193054199219 71.70498996973038 C 110.41053009033203 71.72930997610092 110.3890151977539 71.7532377243042 110.36647033691406 71.77677321434021 C 110.35216522216797 71.79128676652908 110.33683013916016 71.80501580238342 110.32206726074219 71.81874483823776 C 110.30078125 71.83914226293564 110.27972412109375 71.85914742946625 110.25740814208984 71.87758356332779 C 110.24012756347656 71.89248937368393 110.22216033935547 71.90621840953827 110.20430755615234 71.92033970355988 C 110.18290710449219 71.93642228841782 110.16184997558594 71.95289713144302 110.13976287841797 71.9685874581337 C 110.12019348144531 71.98231649398804 110.09982299804688 71.99526101350784 110.07945251464844 72.00820553302765 C 110.0575942993164 72.02232682704926 110.03539276123047 72.03566360473633 110.01307678222656 72.04860812425613 C 109.99190521240234 72.06037586927414 109.97061920166016 72.07253587245941 109.94853210449219 72.08391135931015 C 109.92530059814453 72.09567910432816 109.90149688720703 72.1070545911789 109.87757873535156 72.11803781986237 C 109.85572052001953 72.12745201587677 109.8342056274414 72.13725847005844 109.81166076660156 72.14628040790558 C 109.78545379638672 72.15687137842178 109.7587890625 72.16667783260345 109.73212432861328 72.17569977045059 C 109.71129608154297 72.18236815929413 109.6906967163086 72.19021332263947 109.66952514648438 72.19648945331573 C 109.6382827758789 72.20551139116287 109.60623931884766 72.21335655450821 109.57431030273438 72.22080945968628 C 109.55680084228516 72.22473204135895 109.53963470458984 72.22943913936615 109.52189636230469 72.23336172103882 C 109.48069763183594 72.24120688438416 109.43858337402344 72.24709075689316 109.39635467529297 72.25219011306763 C 109.3867416381836 72.25336688756943 109.37770080566406 72.2549359202385 109.36820220947266 72.25572043657303 C 109.31521606445312 72.26121205091476 109.26188659667969 72.2643501162529 109.20775604248047 72.2643501162529 C 109.20661163330078 72.2643501162529 109.20535278320312 72.2643501162529 109.20420837402344 72.2643501162529 C 109.20420837402344 72.2643501162529 101.96410369873047 72.2643501162529 101.96410369873047 72.2643501162529 C 101.16450500488281 78.31414783000946 95.96854400634766 82.99967163801193 89.6937484741211 82.99967163801193 C 83.4187240600586 82.99967163801193 78.22344970703125 78.31414783000946 77.4238510131836 72.2643501162529 C 77.4238510131836 72.2643501162529 51.34333801269531 72.2643501162529 51.34333801269531 72.2643501162529 C 50.543968200683594 78.31414783000946 45.34846496582031 82.99967163801193 39.07366943359375 82.99967163801193 C 32.79841613769531 82.99967163801193 27.60291290283203 78.31414783000946 26.803543090820312 72.2643501162529 C 26.803543090820312 72.2643501162529 19.565155029296875 72.2643501162529 19.565155029296875 72.2643501162529 C 19.564239501953125 72.2643501162529 19.563323974609375 72.2643501162529 19.56275177001953 72.2643501162529 C 19.510223388671875 72.2643501162529 19.457351684570312 72.2619965672493 19.404022216796875 72.25689721107483 C 19.402992248535156 72.25650495290756 19.402076721191406 72.2561126947403 19.401046752929688 72.2561126947403 C 19.352638244628906 72.2514055967331 19.305145263671875 72.24356043338776 19.25788116455078 72.23493075370789 C 19.2515869140625 72.23336172103882 19.244949340820312 72.23336172103882 19.238426208496094 72.23218494653702 C 19.188758850097656 72.22198623418808 19.140235900878906 72.20904171466827 19.092056274414062 72.19492042064667 C 19.088165283203125 72.19374364614487 19.084503173828125 72.19295912981033 19.080612182617188 72.1921746134758 C 19.03826904296875 72.17883783578873 18.997299194335938 72.16314750909805 18.956558227539062 72.14706492424011 C 18.947402954101562 72.14353460073471 18.937904357910156 72.14078879356384 18.928977966308594 72.13686621189117 C 18.899566650390625 72.1247062087059 18.871185302734375 72.10980039834976 18.84234619140625 72.09528684616089 C 18.703758239746094 72.02742618322372 18.577186584472656 71.94034487009048 18.46503448486328 71.83796548843384 C 18.44683837890625 71.82109838724136 18.427955627441406 71.80540806055069 18.410675048828125 71.78814870119095 C 18.40735626220703 71.78540289402008 18.40483856201172 71.78148031234741 18.401519775390625 71.77834224700928 C 18.22722625732422 71.60143381357193 18.093673706054688 71.3841227889061 18.015052795410156 71.14288401603699 C 18.013221740722656 71.13700014352798 18.010704040527344 71.13150852918625 18.008758544921875 71.12562465667725 C 18.002235412597656 71.10444271564484 17.997657775878906 71.0824762582779 17.992050170898438 71.06090205907822 C 17.983810424804688 71.0303059220314 17.974884033203125 71.00049430131912 17.968589782714844 70.96950590610504 C 17.9661865234375 70.95773816108704 17.96515655517578 70.9451858997345 17.962982177734375 70.93302589654922 C 17.955429077148438 70.8918387889862 17.948219299316406 70.85025942325592 17.943870544433594 70.80868005752563 C 17.9423828125 70.79534327983856 17.942840576171875 70.78239876031876 17.94146728515625 70.76866972446442 C 17.938491821289062 70.72787487506866 17.935401916503906 70.68668776750565 17.935401916503906 70.64510840177536 C 17.935401916503906 70.64353936910629 17.93517303466797 70.64197033643723 17.93517303466797 70.64079356193542 C 17.93517303466797 70.61019742488861 17.938262939453125 70.58156257867813 17.93975067138672 70.55175095796585 C 17.941123962402344 70.52899998426437 17.940895080566406 70.50664126873016 17.943069458007812 70.48428255319595 C 17.943069458007812 70.48428255319595 17.943641662597656 70.47800642251968 17.943641662597656 70.47800642251968 C 17.943870544433594 70.47604513168335 17.94409942626953 70.47408384084702 17.94432830810547 70.47212255001068 C 17.94432830810547 70.47212255001068 19.62432098388672 53.16294640302658 19.62432098388672 53.16294640302658 C 19.624549865722656 53.16098511219025 19.624549865722656 53.15941607952118 19.624778747558594 53.15784704685211 C 19.624778747558594 53.15784704685211 20.711280822753906 41.96358346939087 20.711280822753906 41.96358346939087 C 20.711280822753906 41.96358346939087 15.224983215332031 41.96358346939087 15.224983215332031 41.96358346939087 C 14.326850891113281 41.96358346939087 13.599006652832031 41.23712134361267 13.599006652832031 40.34081143140793 C 13.599006652832031 39.444501519203186 14.326850891113281 38.71764713525772 15.224983215332031 38.71764713525772 C 15.224983215332031 38.71764713525772 21.026336669921875 38.71764713525772 21.026336669921875 38.71764713525772 C 21.026336669921875 38.71764713525772 23.021728515625 18.158219814300537 23.021728515625 18.158219814300537 C 23.021728515625 18.158219814300537 3.6259384155273438 18.158219814300537 3.6259384155273438 18.158219814300537 C 2.727691650390625 18.158219814300537 1.9999618530273438 17.430973172187805 1.9999618530273438 16.534663259983063 C 1.9999618530273438 15.63835334777832 2.727691650390625 14.911891222000122 3.6259384155273438 14.911891222000122 C 3.6259384155273438 14.911891222000122 23.336898803710938 14.911891222000122 23.336898803710938 14.911891222000122 C 23.336898803710938 14.911891222000122 24.447776794433594 3.4661901593208313 24.447776794433594 3.4661901593208313 C 24.44800567626953 3.4634443521499634 24.448692321777344 3.4610908031463623 24.44892120361328 3.4587372541427612 C 24.450180053710938 3.4454004764556885 24.453041076660156 3.4328482151031494 24.45452880859375 3.4195114374160767 C 24.46002197265625 3.377539813518524 24.46540069580078 3.336744964122772 24.47364044189453 3.2959501147270203 C 24.47467041015625 3.2904585003852844 24.47661590576172 3.2853591442108154 24.477760314941406 3.2802597880363464 C 24.637977600097656 2.53614604473114 25.30047607421875 1.9991446137428284 26.064254760742188 1.9995368719100952 C 26.065170288085938 1.9995368719100952 26.06574249267578 1.9991446137428284 26.06665802001953 1.9991446137428284 C 26.06665802001953 1.9991446137428284 45.5784912109375 1.9991446137428284 45.5784912109375 1.9991446137428284 C 46.473876953125 1.9991446137428284 47.2044677734375 2.7263912558555603 47.2044677734375 3.6227011680603027 C 47.2044677734375 4.516657531261444 46.473876953125 5.24586546421051 45.5784912109375 5.24586546421051 C 45.5784912109375 5.24586546421051 27.542373657226562 5.24586546421051 27.542373657226562 5.24586546421051 C 27.542373657226562 5.24586546421051 26.60407257080078 14.911891222000122 26.60407257080078 14.911891222000122 C 26.60407257080078 14.911891222000122 43.4105224609375 14.911891222000122 43.4105224609375 14.911891222000122 C 44.30865478515625 14.911891222000122 45.0364990234375 15.63835334777832 45.0364990234375 16.534663259983063 C 45.0364990234375 17.430973172187805 44.30865478515625 18.158219814300537 43.4105224609375 18.158219814300537 C 43.4105224609375 18.158219814300537 26.288902282714844 18.158219814300537 26.288902282714844 18.158219814300537 C 26.288902282714844 18.158219814300537 24.29351043701172 38.71764713525772 24.29351043701172 38.71764713525772 C 24.29351043701172 38.71764713525772 34.73601531982422 38.71764713525772 34.73601531982422 38.71764713525772 C 35.63414764404297 38.71764713525772 36.36199188232422 39.444501519203186 36.36199188232422 40.34081143140793 C 36.36199188232422 41.23712134361267 35.63414764404297 41.96358346939087 34.73601531982422 41.96358346939087 C 34.73601531982422 41.96358346939087 23.978225708007812 41.96358346939087 23.978225708007812 41.96358346939087 C 23.978225708007812 41.96358346939087 23.033172607421875 51.70296150445938 23.033172607421875 51.70296150445938 C 23.033172607421875 51.70296150445938 79.53265380859375 51.70296150445938 79.53265380859375 51.70296150445938 C 79.53265380859375 51.70296150445938 80.34907531738281 42.34407389163971 80.34907531738281 42.34407389163971 C 80.34953308105469 42.34172034263611 80.34953308105469 42.33819001913071 80.34999084472656 42.335836470127106 C 80.34999084472656 42.335836470127106 83.58592224121094 5.24586546421051 83.58592224121094 5.24586546421051 C 83.58592224121094 5.24586546421051 52.0823974609375 5.24586546421051 52.0823974609375 5.24586546421051 C 51.184837341308594 5.24586546421051 50.4564208984375 4.516657531261444 50.4564208984375 3.6227011680603027 C 50.4564208984375 2.7263912558555603 51.184837341308594 1.9991446137428284 52.0823974609375 1.9991446137428284 C 52.0823974609375 1.9991446137428284 85.3328628540039 1.9991446137428284 85.3328628540039 1.9991446137428284 C 85.3343505859375 1.9991446137428284 85.33606719970703 1.9991446137428284 85.33789825439453 1.9991446137428284 C 85.33789825439453 1.9991446137428284 85.35826873779297 1.9991446137428284 85.35826873779297 1.9991446137428284 C 85.37726593017578 1.9991446137428284 85.39591979980469 2.0014981627464294 85.41503143310547 2.002282679080963 C 85.44341278076172 2.0034594535827637 85.47156524658203 2.003067195415497 85.50017547607422 2.005028486251831 C 85.50475311279297 2.0058130025863647 85.50887298583984 2.0065975189208984 85.5134506225586 2.007382035255432 C 85.54011535644531 2.0093433260917664 85.56609344482422 2.0136581659317017 85.592529296875 2.017973005771637 C 85.62079620361328 2.0218955874443054 85.64940643310547 2.025425910949707 85.67687225341797 2.030917525291443 C 85.69930267333984 2.0348401069641113 85.72047424316406 2.0415084958076477 85.74256134033203 2.0466078519821167 C 85.77403259277344 2.0544530153274536 85.80573272705078 2.061513662338257 85.83651733398438 2.070927858352661 C 85.85059356689453 2.0752426981925964 85.86398315429688 2.0807343125343323 85.87805938720703 2.0854414105415344 C 85.91582489013672 2.0979936718940735 85.95336151123047 2.1109381914138794 85.9895248413086 2.1262362599372864 C 85.99456024169922 2.1281975507736206 85.99925231933594 2.1309433579444885 86.00428771972656 2.1329046487808228 C 86.58770751953125 2.3847343921661377 86.98470306396484 2.963707447052002 86.98470306396484 3.6207398772239685 C 86.98470306396484 3.6211321353912354 86.98470306396484 3.621916651725769 86.98470306396484 3.622308909893036 C 86.98470306396484 3.6262314915657043 86.98424530029297 3.629369556903839 86.98424530029297 3.6328998804092407 C 86.98401641845703 3.6760482788085938 86.98332977294922 3.7195889353752136 86.97943878173828 3.7627373337745667 C 86.97943878173828 3.7627373337745667 84.87395477294922 27.89642107486725 84.87395477294922 27.89642107486725 C 84.87395477294922 27.89642107486725 91.86217498779297 27.89642107486725 91.86217498779297 27.89642107486725 C 103.51763916015625 27.89642107486725 112.99998474121094 37.36239516735077 112.99998474121094 48.99794918298721 C 112.99998474121094 49.977810084819794 112.8950424194336 51.57861566543579 112.73127746582031 53.479498744010925 Z M 89.6937484741211 79.75334304571152 C 94.72708892822266 79.75334304571152 98.82201385498047 75.66522842645645 98.82201385498047 70.64040130376816 C 98.82201385498047 65.61596643924713 94.72708892822266 61.52824407815933 89.6937484741211 61.52824407815933 C 84.66075134277344 61.52824407815933 80.5659408569336 65.61596643924713 80.5659408569336 70.64040130376816 C 80.5659408569336 75.66522842645645 84.6605224609375 79.75334304571152 89.6937484741211 79.75334304571152 Z M 39.074127197265625 79.75334304571152 C 44.10723876953125 79.75334304571152 48.20216369628906 75.66522842645645 48.20216369628906 70.64040130376816 C 48.20216369628906 65.61596643924713 44.10723876953125 61.52824407815933 39.074127197265625 61.52824407815933 C 34.04090118408203 61.52824407815933 29.94586181640625 65.61596643924713 29.94586181640625 70.64040130376816 C 29.94586181640625 75.66522842645645 34.040672302246094 79.75334304571152 39.074127197265625 79.75334304571152 Z M 84.5905990600586 31.14314192533493 C 84.5905990600586 31.14314192533493 83.74087524414062 40.88173544406891 83.74087524414062 40.88173544406891 C 83.74087524414062 40.88173544406891 90.39286804199219 40.88173544406891 90.39286804199219 40.88173544406891 C 90.39286804199219 40.88173544406891 91.24259185791016 31.14314192533493 91.24259185791016 31.14314192533493 C 91.24259185791016 31.14314192533493 84.5905990600586 31.14314192533493 84.5905990600586 31.14314192533493 Z M 91.8617172241211 44.12688726186752 C 91.8617172241211 44.12688726186752 83.45820617675781 44.12688726186752 83.45820617675781 44.12688726186752 C 83.45820617675781 44.12688726186752 82.64327239990234 53.465769708156586 82.64327239990234 53.465769708156586 C 82.6430435180664 53.47008454799652 82.64224243164062 53.47361487150192 82.64178466796875 53.477145195007324 C 82.63915252685547 53.504603266716 82.63457489013672 53.53127682209015 82.63068389892578 53.55755811929703 C 82.62679290771484 53.583839416503906 82.62381744384766 53.60972845554352 82.61878204345703 53.63522523641586 C 82.6137466430664 53.66150653362274 82.60688018798828 53.68700331449509 82.6005859375 53.7128923535347 C 82.59406280517578 53.73838913440704 82.58822631835938 53.76388591527939 82.58101654052734 53.78938269615173 C 82.57392120361328 53.812918186187744 82.5654525756836 53.83606141805649 82.55744171142578 53.8595969080925 C 82.54805755615234 53.88548594713211 82.53924560546875 53.91137498617172 82.52860260009766 53.93687176704407 C 82.51990509033203 53.95883822441101 82.51017761230469 53.97923564910889 82.50056457519531 54.000417590141296 C 82.48831939697266 54.026698887348175 82.47653198242188 54.05258792638779 82.4629135131836 54.07808470726013 C 82.45295715332031 54.097697615623474 82.4416275024414 54.11652600765228 82.4306411743164 54.13574665784836 C 82.41610717773438 54.1612434387207 82.40088653564453 54.18634796142578 82.38509368896484 54.210667967796326 C 82.37296295166016 54.22910410165787 82.36060333251953 54.246755719184875 82.34778594970703 54.26479959487915 C 82.33084869384766 54.28833508491516 82.31368255615234 54.311478316783905 82.29571533203125 54.33422929048538 C 82.28186798095703 54.35188090801239 82.26756286621094 54.36796349287033 82.2530288696289 54.38522285223007 C 82.234375 54.40679705142975 82.21549224853516 54.42797899246216 82.19603729248047 54.44798415899277 C 82.18001556396484 54.464459002017975 82.16353607177734 54.48093384504318 82.14705657958984 54.496624171733856 C 82.12748718261719 54.51584482192993 82.10734558105469 54.53349643945694 82.08674621582031 54.551540315151215 C 82.06855010986328 54.56723064184189 82.05012512207031 54.582528710365295 82.0314712524414 54.5978267788887 C 82.0106430053711 54.613517105579376 81.98981475830078 54.62920743227005 81.96841430664062 54.64411324262619 C 81.94827270507812 54.65901905298233 81.9282455444336 54.67314034700394 81.90718841552734 54.68647712469101 C 81.88555908203125 54.700598418712616 81.86347198486328 54.71393519639969 81.84115600585938 54.72648745775223 C 81.81918334960938 54.739431977272034 81.79755401611328 54.751591980457306 81.77546691894531 54.76375198364258 C 81.75223541259766 54.77591198682785 81.72820281982422 54.78689521551132 81.70405578613281 54.79748618602753 C 81.68196868896484 54.80807715654373 81.66011047363281 54.81827586889267 81.63733673095703 54.82808232307434 C 81.61090087890625 54.838673293590546 81.58354949951172 54.84808748960495 81.55619812011719 54.857501685619354 C 81.5352554321289 54.864954590797424 81.51465606689453 54.87279975414276 81.49291229248047 54.8794681429863 C 81.4613265991211 54.8888823390007 81.42882537841797 54.895942986011505 81.39620971679688 54.90418040752411 C 81.37847137451172 54.90810298919678 81.3609619140625 54.91359460353851 81.34288024902344 54.917124927043915 C 81.30133819580078 54.92536234855652 81.25899505615234 54.93124622106552 81.21653747558594 54.93595331907272 C 81.20658111572266 54.93752235174179 81.19685363769531 54.93987590074539 81.18678283691406 54.940660417079926 C 81.13345336914062 54.94615203142166 81.07955169677734 54.949290096759796 81.02507781982422 54.949290096759796 C 81.02427673339844 54.949290096759796 81.02359008789062 54.949290096759796 81.02267456054688 54.949290096759796 C 81.02267456054688 54.949290096759796 81.02267456054688 54.948113322257996 81.02267456054688 54.948113322257996 C 81.02267456054688 54.948113322257996 22.718231201171875 54.948113322257996 22.718231201171875 54.948113322257996 C 22.718231201171875 54.948113322257996 21.35260772705078 69.01684474945068 21.35260772705078 69.01684474945068 C 21.35260772705078 69.01684474945068 26.80377197265625 69.01684474945068 26.80377197265625 69.01684474945068 C 27.60291290283203 62.966654777526855 32.79887390136719 58.28073871135712 39.074127197265625 58.28073871135712 C 45.349266052246094 58.28073871135712 50.544883728027344 62.966654777526855 51.344024658203125 69.01684474945068 C 51.344024658203125 69.01684474945068 77.42430877685547 69.01684474945068 77.42430877685547 69.01684474945068 C 78.22344970703125 62.966654777526855 83.41918182373047 58.28073871135712 89.69420623779297 58.28073871135712 C 95.96957397460938 58.28073871135712 101.16542053222656 62.966654777526855 101.96444702148438 69.01684474945068 C 101.96444702148438 69.01684474945068 107.76751708984375 69.01684474945068 107.76751708984375 69.01684474945068 C 108.10958099365234 66.2102375626564 108.87427520751953 59.80034685134888 109.34737396240234 54.807684898376465 C 105.6227798461914 54.19497764110565 103.43157958984375 51.68295633792877 101.46891784667969 49.43217897415161 C 99.09037780761719 46.70363116264343 96.84355926513672 44.12688726186752 91.8617172241211 44.12688726186752 Z M 94.48973846435547 31.33730971813202 C 94.48973846435547 31.33730971813202 93.64859771728516 40.979015469551086 93.64859771728516 40.979015469551086 C 98.91963195800781 41.56661820411682 101.669189453125 44.71880483627319 103.92150115966797 47.30182486772537 C 105.72245788574219 49.367064118385315 107.20904541015625 51.06279617547989 109.62523651123047 51.55429565906525 C 109.70248413085938 50.49088376760483 109.74791717529297 49.607126116752625 109.74791717529297 48.99834144115448 C 109.74791717529297 40.04426425695419 103.11045837402344 32.6105797290802 94.48973846435547 31.33730971813202 Z M 39.074127197265625 64.68866813182831 C 42.36144256591797 64.68866813182831 45.036041259765625 67.35876947641373 45.036041259765625 70.64000904560089 C 45.036041259765625 73.92242538928986 42.36144256591797 76.59213447570801 39.074127197265625 76.59213447570801 C 35.78681182861328 76.59213447570801 33.112098693847656 73.92242538928986 33.112098693847656 70.64000904560089 C 33.112098693847656 67.35837721824646 35.78681182861328 64.68866813182831 39.074127197265625 64.68866813182831 Z M 39.074127197265625 73.34541362524033 C 40.568267822265625 73.34541362524033 41.784088134765625 72.13215911388397 41.784088134765625 70.64000904560089 C 41.784088134765625 69.14864349365234 40.56849670410156 67.93460446596146 39.074127197265625 67.93460446596146 C 37.57964324951172 67.93460446596146 36.364166259765625 69.14864349365234 36.364166259765625 70.64000904560089 C 36.364166259765625 72.13215911388397 37.57964324951172 73.34541362524033 39.074127197265625 73.34541362524033 Z M 89.6937484741211 64.68866813182831 C 92.98106384277344 64.68866813182831 95.6556625366211 67.35876947641373 95.6556625366211 70.64000904560089 C 95.6556625366211 73.92242538928986 92.98106384277344 76.59213447570801 89.6937484741211 76.59213447570801 C 86.40643310546875 76.59213447570801 83.7318344116211 73.92242538928986 83.7318344116211 70.64000904560089 C 83.7318344116211 67.35837721824646 86.40643310546875 64.68866813182831 89.6937484741211 64.68866813182831 Z M 89.6937484741211 73.34541362524033 C 91.18811798095703 73.34541362524033 92.4037094116211 72.13215911388397 92.4037094116211 70.64000904560089 C 92.4037094116211 69.14864349365234 91.18811798095703 67.93460446596146 89.6937484741211 67.93460446596146 C 88.19937896728516 67.93460446596146 86.9837875366211 69.14864349365234 86.9837875366211 70.64000904560089 C 86.9837875366211 72.13215911388397 88.19937896728516 73.34541362524033 89.6937484741211 73.34541362524033 Z M 9.443428039550781 27.896813333034515 C 9.443428039550781 27.896813333034515 17.392608642578125 27.896813333034515 17.392608642578125 27.896813333034515 C 18.290740966796875 27.896813333034515 19.018585205078125 28.62366771697998 19.018585205078125 29.519977629184723 C 19.018585205078125 30.416679799556732 18.290740966796875 31.14314192533493 17.392608642578125 31.14314192533493 C 17.392608642578125 31.14314192533493 9.443428039550781 31.14314192533493 9.443428039550781 31.14314192533493 C 8.545295715332031 31.14314192533493 7.817451477050781 30.416679799556732 7.817451477050781 29.519977629184723 C 7.817451477050781 28.62366771697998 8.545295715332031 27.896813333034515 9.443428039550781 27.896813333034515 Z"/></g></svg>